<svg width="18" height="14" viewBox="0 0 18 14" fill="none" xmlns="http://www.w3.org/2000/svg">
<path d="M16.6 11.834L11.2857 7.33398M6.71429 7.33398L1.40003 11.834M1 3.58398L7.53194 7.87057C8.06087 8.21768 8.32534 8.39124 8.61301 8.45847C8.86712 8.51785 9.13288 8.51785 9.38699 8.45847C9.67466 8.39124 9.93913 8.21768 10.4681 7.87057L17 3.58398M4.84 13.334H13.16C14.5041 13.334 15.1762 13.334 15.6896 13.0887C16.1412 12.873 16.5083 12.5288 16.7384 12.1055C17 11.6242 17 10.9941 17 9.73398V4.93398C17 3.67387 17 3.04381 16.7384 2.56251C16.5083 2.13914 16.1412 1.79493 15.6896 1.57922C15.1762 1.33398 14.5041 1.33398 13.16 1.33398H4.84C3.49587 1.33398 2.82381 1.33398 2.31042 1.57922C1.85883 1.79493 1.49168 2.13914 1.26158 2.56251C1 3.04381 1 3.67387 1 4.93398V9.73398C1 10.9941 1 11.6242 1.26158 12.1055C1.49168 12.5288 1.85883 12.873 2.31042 13.0887C2.82381 13.334 3.49587 13.334 4.84 13.334Z" stroke="#25E1FF" stroke-width="1.33333" stroke-linecap="round" stroke-linejoin="round"/>
</svg>