<svg width="31" height="30" viewBox="0 0 31 30" fill="none" xmlns="http://www.w3.org/2000/svg">
<rect x="1.42119" y="0.471548" width="28.7999" height="28.7999" rx="14.4" stroke="#25E1FF" stroke-width="0.943095"/>
<path d="M15.8289 9.38651C17.616 9.38651 17.8279 9.3932 18.5335 9.42555C19.263 9.45901 20.0143 9.62522 20.5458 10.1568C21.0823 10.6933 21.2435 11.4373 21.277 12.1691C21.3093 12.8746 21.316 13.0866 21.316 14.8736C21.316 16.6606 21.3093 16.8726 21.277 17.5781C21.2441 18.3037 21.074 19.0623 20.5458 19.5904C20.0092 20.127 19.2658 20.2882 18.5335 20.3216C17.8279 20.354 17.616 20.3607 15.8289 20.3607C14.0419 20.3607 13.83 20.354 13.1244 20.3216C12.4044 20.2887 11.6358 20.1147 11.1121 19.5904C10.5783 19.0567 10.4144 18.3054 10.3809 17.5781C10.3486 16.8726 10.3419 16.6606 10.3419 14.8736C10.3419 13.0866 10.3486 12.8746 10.3809 12.1691C10.4138 11.4463 10.5856 10.6833 11.1121 10.1568C11.6475 9.62132 12.3944 9.45901 13.1244 9.42555C13.83 9.3932 14.0419 9.38651 15.8289 9.38651ZM15.8289 8.18066C14.0113 8.18066 13.7831 8.18847 13.0692 8.22082C12.0346 8.26823 11.0072 8.55603 10.2593 9.30396C9.50859 10.0547 9.22358 11.0798 9.17617 12.1139C9.14383 12.8278 9.13602 13.0559 9.13602 14.8736C9.13602 16.6913 9.14383 16.9194 9.17617 17.6333C9.22358 18.6668 9.51249 19.697 10.2593 20.4432C11.0095 21.1934 12.0363 21.479 13.0692 21.5264C13.7831 21.5587 14.0113 21.5665 15.8289 21.5665C17.6466 21.5665 17.8748 21.5587 18.5887 21.5264C19.6227 21.479 20.6512 21.1906 21.3986 20.4432C22.1499 19.6919 22.4343 18.6674 22.4817 17.6333C22.5141 16.9194 22.5219 16.6913 22.5219 14.8736C22.5219 13.0559 22.5141 12.8278 22.4817 12.1139C22.4343 11.0793 22.146 10.0513 21.3986 9.30396C20.6495 8.55491 19.6199 8.26767 18.5887 8.22082C17.8748 8.18847 17.6466 8.18066 15.8289 8.18066Z" fill="white"/>
<path d="M15.8293 11.4375C13.9313 11.4375 12.3925 12.9763 12.3925 14.8743C12.3925 16.7723 13.9313 18.3111 15.8293 18.3111C17.7273 18.3111 19.2661 16.7723 19.2661 14.8743C19.2661 12.9763 17.7273 11.4375 15.8293 11.4375ZM15.8293 17.1053C14.5972 17.1053 13.5983 16.1064 13.5983 14.8743C13.5983 13.6423 14.5972 12.6433 15.8293 12.6433C17.0613 12.6433 18.0603 13.6423 18.0603 14.8743C18.0603 16.1064 17.0613 17.1053 15.8293 17.1053Z" fill="white"/>
<path d="M19.402 12.1044C19.8456 12.1044 20.2052 11.7448 20.2052 11.3012C20.2052 10.8576 19.8456 10.498 19.402 10.498C18.9584 10.498 18.5988 10.8576 18.5988 11.3012C18.5988 11.7448 18.9584 12.1044 19.402 12.1044Z" fill="white"/>
</svg>