<svg width="13.516464" height="13.514160" viewBox="0 0 13.5165 13.5142" fill="none" xmlns="http://www.w3.org/2000/svg" xmlns:xlink="http://www.w3.org/1999/xlink">
	<desc>
			Created with Pixso.
	</desc>
	<defs/>
	<path id="Icon" d="M12.89 6.19L12.89 6.76C12.89 8.08 12.47 9.37 11.67 10.43C10.88 11.49 9.76 12.27 8.49 12.64C7.22 13.02 5.87 12.97 4.62 12.51C3.38 12.06 2.32 11.21 1.6 10.1C0.88 8.98 0.54 7.67 0.62 6.35C0.71 5.03 1.22 3.77 2.08 2.76C2.94 1.75 4.11 1.05 5.4 0.76C6.69 0.47 8.04 0.6 9.25 1.14M12.89 1.84L6.75 7.99L4.91 6.14" stroke="#00A099" stroke-opacity="1.000000" stroke-width="1.228520" stroke-linejoin="round" stroke-linecap="round"/>
</svg>
