<svg width="18" height="18" viewBox="0 0 18 18" fill="none" xmlns="http://www.w3.org/2000/svg">
<path d="M3.4 11.1631C1.91891 11.8164 1 12.7269 1 13.734C1 15.7222 4.58172 17.334 9 17.334C13.4183 17.334 17 15.7222 17 13.734C17 12.7269 16.0811 11.8164 14.6 11.1631M13.8 6.13398C13.8 9.38495 10.2 10.934 9 13.334C7.8 10.934 4.2 9.38495 4.2 6.13398C4.2 3.48302 6.34903 1.33398 9 1.33398C11.651 1.33398 13.8 3.48302 13.8 6.13398ZM9.8 6.13398C9.8 6.57581 9.44183 6.93398 9 6.93398C8.55817 6.93398 8.2 6.57581 8.2 6.13398C8.2 5.69216 8.55817 5.33398 9 5.33398C9.44183 5.33398 9.8 5.69216 9.8 6.13398Z" stroke="#25E1FF" stroke-width="1.33333" stroke-linecap="round" stroke-linejoin="round"/>
</svg>