<svg width="16" height="16" viewBox="0 0 16 16" fill="none" xmlns="http://www.w3.org/2000/svg">
<path d="M9.52368 3.57607C10.2375 3.7147 10.8934 4.06223 11.4077 4.57417C11.9219 5.0861 12.271 5.73915 12.4102 6.44974M9.52368 0.666016C11.0066 0.830023 12.3895 1.49114 13.4452 2.54082C14.5009 3.5905 15.1667 4.96635 15.3334 6.44246M6.72991 9.29655C5.85182 8.42238 5.15847 7.43395 4.64985 6.37934C4.6061 6.28862 4.58423 6.24327 4.56742 6.18587C4.5077 5.98191 4.5506 5.73146 4.67484 5.55873C4.7098 5.51012 4.75157 5.46854 4.8351 5.38537C5.09059 5.13103 5.21833 5.00386 5.30185 4.87598C5.61681 4.39372 5.61681 3.772 5.30185 3.28974C5.21833 3.16186 5.09059 3.03469 4.8351 2.78034L4.6927 2.63857C4.30433 2.25194 4.11015 2.05863 3.9016 1.95362C3.48684 1.74477 2.99702 1.74477 2.58226 1.95362C2.37371 2.05863 2.17953 2.25194 1.79117 2.63857L1.67597 2.75326C1.28893 3.13856 1.09542 3.33122 0.947618 3.59314C0.783616 3.88379 0.665697 4.33521 0.666693 4.66857C0.667591 4.96899 0.726129 5.17431 0.843205 5.58495C1.47238 7.79179 2.65951 9.87419 4.40459 11.6115C6.14967 13.3488 8.24142 14.5306 10.4582 15.157C10.8706 15.2735 11.0769 15.3318 11.3786 15.3327C11.7135 15.3337 12.1669 15.2163 12.4589 15.053C12.722 14.9059 12.9155 14.7132 13.3026 14.3279L13.4177 14.2132C13.8061 13.8266 14.0003 13.6333 14.1058 13.4257C14.3156 13.0128 14.3156 12.5251 14.1058 12.1122C14.0003 11.9046 13.8061 11.7113 13.4177 11.3247L13.2753 11.1829C13.0199 10.9285 12.8921 10.8014 12.7637 10.7182C12.2792 10.4047 11.6547 10.4047 11.1703 10.7182C11.0419 10.8014 10.9141 10.9285 10.6586 11.1829C10.5751 11.266 10.5333 11.3076 10.4845 11.3424C10.311 11.4661 10.0594 11.5088 9.85454 11.4494C9.79688 11.4326 9.75132 11.4109 9.6602 11.3673C8.60086 10.861 7.60799 10.1707 6.72991 9.29655Z" stroke="#25E1FF" stroke-width="1.33333" stroke-linecap="round" stroke-linejoin="round"/>
</svg>