<svg width="31" height="30" viewBox="0 0 31 30" fill="none" xmlns="http://www.w3.org/2000/svg">
<rect x="1.06182" y="0.471548" width="28.7999" height="28.7999" rx="14.4" stroke="#25E1FF" stroke-width="0.943095"/>
<g clip-path="url(#clip0_8_370)">
<path fill-rule="evenodd" clip-rule="evenodd" d="M9.28653 13.8142C13.1293 12.14 15.6917 11.0362 16.9738 10.503C20.6345 8.98035 21.3952 8.71586 21.8909 8.70712C22 8.7052 22.2438 8.73223 22.4017 8.86038C22.5351 8.96859 22.5718 9.11476 22.5893 9.21736C22.6069 9.31995 22.6288 9.55366 22.6114 9.73627C22.413 11.8206 21.5546 16.8787 21.118 19.2132C20.9332 20.201 20.5693 20.5322 20.2171 20.5647C19.4516 20.6351 18.8704 20.0588 18.1289 19.5728C16.9688 18.8123 16.3134 18.3389 15.1872 17.5968C13.8858 16.7391 14.7295 16.2677 15.4711 15.4974C15.6652 15.2958 19.038 12.228 19.1033 11.9497C19.1114 11.9149 19.119 11.7852 19.0419 11.7167C18.9649 11.6482 18.8511 11.6716 18.769 11.6902C18.6527 11.7166 16.7993 12.9417 13.2089 15.3653C12.6828 15.7265 12.2063 15.9025 11.7794 15.8933C11.3087 15.8831 10.4034 15.6272 9.73037 15.4084C8.90486 15.1401 8.24877 14.9982 8.3059 14.5425C8.33565 14.3051 8.66253 14.0623 9.28653 13.8142Z" fill="white"/>
</g>
<defs>
<clipPath id="clip0_8_370">
<rect width="14.8715" height="14.8715" fill="white" transform="translate(8.02429 6.81641)"/>
</clipPath>
</defs>
</svg>