<svg width="31" height="30" viewBox="0 0 31 30" fill="none" xmlns="http://www.w3.org/2000/svg">
<rect x="1.13823" y="0.471548" width="28.7999" height="28.7999" rx="14.4" stroke="#25E1FF" stroke-width="0.943095"/>
<g clip-path="url(#clip0_8_361)">
<path d="M21.1521 11.8852C21.1578 12.0161 21.1578 12.141 21.1578 12.2719C21.1636 16.2396 18.2485 20.8201 12.9175 20.8201C11.3452 20.8201 9.80152 20.3501 8.47595 19.4697C8.70549 19.4995 8.93502 19.5114 9.16456 19.5114C10.4672 19.5114 11.7354 19.0593 12.7625 18.2205C11.523 18.1967 10.4327 17.358 10.054 16.1326C10.4901 16.2218 10.9377 16.2039 11.3624 16.079C10.0138 15.8054 9.04405 14.574 9.03832 13.1404C9.03832 13.1285 9.03832 13.1166 9.03832 13.1047C9.44 13.3367 9.89334 13.4676 10.3524 13.4795C9.08422 12.5991 8.68827 10.8442 9.45722 9.47009C10.932 11.3499 13.1011 12.486 15.4309 12.611C15.1956 11.57 15.517 10.4754 16.2687 9.73778C17.4336 8.60159 19.2699 8.66107 20.3717 9.86865C21.0201 9.73778 21.6456 9.48793 22.2137 9.13696C21.9956 9.83295 21.5423 10.4219 20.9398 10.7966C21.5136 10.7252 22.076 10.5646 22.6039 10.3267C22.2137 10.9334 21.7202 11.4569 21.1521 11.8852Z" fill="white"/>
</g>
<defs>
<clipPath id="clip0_8_361">
<rect width="14.8715" height="14.8715" fill="white" transform="translate(8.10416 7.43555)"/>
</clipPath>
</defs>
</svg>